<svg width="19" height="16" viewBox="0 0 19 16" fill="none" xmlns="http://www.w3.org/2000/svg">
<path fill-rule="evenodd" clip-rule="evenodd" d="M0 8C0 7.44772 0.528682 7 1.18084 7H17.8192C18.4713 7 19 7.44772 19 8C19 8.55228 18.4713 9 17.8192 9H1.18084C0.528682 9 0 8.55228 0 8Z" fill="#1E293B"/>
<path fill-rule="evenodd" clip-rule="evenodd" d="M7.94408 0.235917C8.31714 0.573832 8.34563 1.15019 8.00771 1.52325L2.14108 8L8.00771 14.4768C8.34563 14.8498 8.31714 15.4262 7.94408 15.7641C7.57102 16.102 6.99466 16.0735 6.65675 15.7005L0.23591 8.61185C-0.0786367 8.26459 -0.0786367 7.73541 0.23591 7.38815L6.65675 0.299549C6.99466 -0.0735088 7.57102 -0.101998 7.94408 0.235917Z" fill="#1E293B"/>
</svg>
