<svg width="20" height="18" viewBox="0 0 20 18" fill="none" xmlns="http://www.w3.org/2000/svg">
<path d="M7.76059 11.3668C7.18559 10.7928 6.83559 10.0128 6.83559 9.13782C6.83559 7.38482 8.24759 5.97182 9.99959 5.97182C10.8666 5.97182 11.6646 6.32282 12.2296 6.89682" stroke="#64748B" stroke-width="1.4" stroke-linecap="round" stroke-linejoin="round"/>
<path d="M13.1048 9.69892C12.8728 10.9889 11.8568 12.0069 10.5678 12.2409" stroke="#64748B" stroke-width="1.4" stroke-linecap="round" stroke-linejoin="round"/>
<path fill-rule="evenodd" clip-rule="evenodd" d="M9.99959 2.53432C8.27532 2.53432 6.59454 3.15264 5.118 4.32122L5.11632 4.32254C3.69024 5.44412 2.44865 7.07649 1.51464 9.13809C2.43903 11.1888 3.6714 12.8104 5.08687 13.9217C5.39094 14.1605 5.44391 14.6005 5.20517 14.9046C4.96643 15.2087 4.52639 15.2616 4.22232 15.0229C2.5269 13.6918 1.1177 11.7694 0.106351 9.41344C0.0304684 9.23667 0.0306799 9.03646 0.106936 8.85984C1.12809 6.49479 2.54572 4.5634 4.25006 3.22273C5.94732 1.87975 7.92822 1.13432 9.99959 1.13432C12.0848 1.13432 14.0648 1.89169 15.7702 3.24261C16.0733 3.48265 16.1244 3.92292 15.8843 4.22596C15.6443 4.52901 15.204 4.58008 14.9009 4.34003C13.4124 3.16095 11.7324 2.53432 9.99959 2.53432Z" fill="#64748B"/>
<path fill-rule="evenodd" clip-rule="evenodd" d="M17.0266 5.43156C17.3355 5.19906 17.7743 5.26097 18.0068 5.56984C18.7317 6.53278 19.3636 7.63682 19.8921 8.85897C19.9687 9.03612 19.9688 9.23703 19.8923 9.41423C17.8554 14.1331 14.1762 17.1388 9.99958 17.1388C9.06034 17.1388 8.13456 16.9864 7.24598 16.6898C6.87927 16.5674 6.6812 16.1709 6.80359 15.8042C6.92598 15.4375 7.32247 15.2394 7.68919 15.3618C8.43661 15.6113 9.21283 15.7388 9.99958 15.7388C13.3639 15.7388 16.5706 13.359 18.4841 9.13702C18.0217 8.11774 17.4857 7.20547 16.8883 6.4118C16.6558 6.10293 16.7177 5.66406 17.0266 5.43156Z" fill="#64748B"/>
<path fill-rule="evenodd" clip-rule="evenodd" d="M18.382 0.754647C18.6553 1.02801 18.6553 1.47123 18.382 1.7446L2.60797 17.5186C2.3346 17.792 1.89139 17.792 1.61802 17.5186C1.34465 17.2452 1.34465 16.802 1.61802 16.5286L17.392 0.754647C17.6654 0.48128 18.1086 0.48128 18.382 0.754647Z" fill="#64748B"/>
</svg>
