<svg width="170" height="170" viewBox="0 0 170 170" fill="none" xmlns="http://www.w3.org/2000/svg">
<path d="M0 10C0 4.47715 4.47715 0 10 0H160C165.523 0 170 4.47715 170 10V160C170 165.523 165.523 170 160 170H10C4.47715 170 0 165.523 0 160V10Z" fill="#009A9F"/>
<path d="M152.53 127H42.53V122H152.53V127Z" fill="white"/>
<path fill-rule="evenodd" clip-rule="evenodd" d="M18.15 159.82C18.25 160.02 18.38 160.12 18.54 160.12H26.07C26.35 160.12 26.66 160.04 27 159.88C27.34 159.72 27.61 159.53 27.81 159.31L28.35 158.68C28.57 158.46 28.74 158.17 28.86 157.81C29 157.47 29.07 157.15 29.07 156.85V139.39C29.07 139.11 28.99 138.87 28.83 138.67C28.69 138.47 28.51 138.37 28.29 138.37H26.31C26.13 138.37 26.04 138.02 26.04 137.32V136.39C26.04 136.11 26.14 135.87 26.34 135.67C26.54 135.45 26.79 135.34 27.09 135.34H28.02C28.3 135.34 28.54 135.24 28.74 135.04C28.96 134.84 29.07 134.59 29.07 134.29V133.6C29.07 133.32 28.96 133.08 28.74 132.88C28.54 132.68 28.3 132.58 28.02 132.58H19.02C18.74 132.58 18.5 132.68 18.3 132.88C18.1 133.08 18 133.32 18 133.6V134.29C18 134.59 18.1 134.84 18.3 135.04C18.5 135.24 18.74 135.34 19.02 135.34H20.01C20.31 135.34 20.56 135.45 20.76 135.67C20.96 135.87 21.06 136.11 21.06 136.39V137.32C21.06 137.6 21.03 137.85 20.97 138.07C20.91 138.27 20.85 138.37 20.79 138.37H19.02C18.74 138.37 18.5 138.47 18.3 138.67C18.1 138.87 18 139.11 18 139.39V159.07C18 159.37 18.05 159.62 18.15 159.82ZM23.16 138.07C23.06 137.87 23.01 137.62 23.01 137.32V136.39C23.01 136.09 23.06 135.84 23.16 135.64C23.26 135.44 23.39 135.34 23.55 135.34C23.71 135.34 23.84 135.44 23.94 135.64C24.04 135.84 24.09 136.09 24.09 136.39V137.32C24.09 137.62 24.04 137.87 23.94 138.07C23.84 138.27 23.71 138.37 23.55 138.37C23.39 138.37 23.26 138.27 23.16 138.07ZM21.39 151.39C21.61 151.23 21.82 151.04 22.02 150.82L22.32 150.46C22.52 150.24 22.68 149.96 22.8 149.62C22.94 149.26 23.01 148.93 23.01 148.63V142.18C23.01 141.88 23.06 141.63 23.16 141.43C23.26 141.23 23.39 141.13 23.55 141.13C23.71 141.13 23.84 141.23 23.94 141.43C24.04 141.63 24.09 141.88 24.09 142.18V148.63C24.09 148.93 24.15 149.27 24.27 149.65C24.39 150.01 24.53 150.3 24.69 150.52L24.84 150.79C25.04 151.03 25.24 151.23 25.44 151.39C25.66 151.55 25.85 151.63 26.01 151.63C26.17 151.63 26.3 151.71 26.4 151.87C26.52 152.03 26.58 152.23 26.58 152.47C26.58 152.71 26.48 152.92 26.28 153.1C26.08 153.26 25.83 153.34 25.53 153.34H21.54C21.26 153.34 21.02 153.25 20.82 153.07C20.62 152.89 20.52 152.69 20.52 152.47C20.52 152.23 20.56 152.03 20.64 151.87C20.72 151.71 20.81 151.63 20.91 151.63C21.03 151.63 21.19 151.55 21.39 151.39ZM20.52 142.18C20.52 141.48 20.61 141.13 20.79 141.13C20.85 141.13 20.91 141.24 20.97 141.46C21.03 141.66 21.06 141.9 21.06 142.18V148.06C21.06 148.34 21.03 148.59 20.97 148.81C20.91 149.01 20.85 149.11 20.79 149.11C20.61 149.11 20.52 148.76 20.52 148.06V142.18ZM26.04 142.18C26.04 141.48 26.13 141.13 26.31 141.13C26.39 141.13 26.45 141.24 26.49 141.46C26.55 141.66 26.58 141.9 26.58 142.18V148.06C26.58 148.36 26.55 148.61 26.49 148.81C26.45 149.01 26.39 149.11 26.31 149.11C26.13 149.11 26.04 148.76 26.04 148.06V142.18ZM26.28 157.09C26.1 157.25 25.85 157.33 25.53 157.33H21.54C21.24 157.35 21 157.28 20.82 157.12C20.64 156.98 20.55 156.8 20.55 156.58C20.55 156.36 20.64 156.18 20.82 156.04C21 155.88 21.24 155.81 21.54 155.83H25.53C25.85 155.83 26.1 155.91 26.28 156.07C26.46 156.21 26.55 156.38 26.55 156.58C26.55 156.78 26.46 156.95 26.28 157.09Z" fill="white"/>
<path d="M33.06 146.2C33.28 145.98 33.53 145.87 33.81 145.87H34.74C35.04 145.87 35.36 145.8 35.7 145.66C36.04 145.52 36.32 145.34 36.54 145.12L37.29 144.37C37.49 144.17 37.66 143.9 37.8 143.56C37.94 143.22 38.01 142.91 38.01 142.63V133.6C38.01 133.3 37.91 133.06 37.71 132.88C37.51 132.68 37.27 132.58 36.99 132.58H31.05C30.77 132.58 30.52 132.68 30.3 132.88C30.1 133.08 30 133.32 30 133.6V134.29C30 134.59 30.1 134.84 30.3 135.04C30.52 135.24 30.77 135.34 31.05 135.34H34.17C34.47 135.34 34.72 135.45 34.92 135.67C35.12 135.87 35.22 136.11 35.22 136.39V142.06C35.22 142.34 35.12 142.59 34.92 142.81C34.72 143.01 34.47 143.11 34.17 143.11H31.05C30.77 143.11 30.52 143.21 30.3 143.41C30.1 143.61 30 143.86 30 144.16V156.85C30 157.15 30.07 157.47 30.21 157.81C30.35 158.15 30.53 158.41 30.75 158.59L31.5 159.37C31.68 159.59 31.94 159.77 32.28 159.91C32.64 160.05 32.97 160.12 33.27 160.12H36.99C37.27 160.12 37.51 160.01 37.71 159.79C37.91 159.59 38.01 159.35 38.01 159.07V158.38C38.01 158.08 37.91 157.83 37.71 157.63C37.51 157.43 37.27 157.33 36.99 157.33H33.81C33.53 157.33 33.28 157.23 33.06 157.03C32.86 156.83 32.76 156.58 32.76 156.28V146.92C32.76 146.64 32.86 146.4 33.06 146.2Z" fill="white"/>
<path fill-rule="evenodd" clip-rule="evenodd" d="M52.1894 156.22C52.3694 156.38 52.4594 156.59 52.4594 156.85V158.23C52.4594 158.47 52.5495 158.68 52.7295 158.86C52.9095 159.04 53.1194 159.13 53.3594 159.13H54.2895C54.5495 159.13 54.7595 159.04 54.9195 158.86C55.0995 158.68 55.1894 158.47 55.1894 158.23V156.85C55.1894 156.59 55.2794 156.38 55.4594 156.22C55.6394 156.04 55.8494 155.95 56.0894 155.95H62.7494C63.0094 155.95 63.2194 155.86 63.3794 155.68C63.5594 155.5 63.6494 155.29 63.6494 155.05V154.12C63.6494 153.86 63.5594 153.65 63.3794 153.49C63.2194 153.31 63.0094 153.22 62.7494 153.22H56.0894C55.8494 153.22 55.6394 153.13 55.4594 152.95C55.2794 152.77 55.1894 152.56 55.1894 152.32V152.29C55.1894 152.03 55.2794 151.82 55.4594 151.66C55.6394 151.48 55.8494 151.39 56.0894 151.39H60.0194C60.2794 151.39 60.5594 151.33 60.8594 151.21C61.1594 151.07 61.3994 150.91 61.5794 150.73L62.4494 149.86C62.6294 149.68 62.7794 149.44 62.8994 149.14C63.0394 148.84 63.1094 148.56 63.1094 148.3V139.21C63.1094 138.95 63.0594 138.74 62.9594 138.58C62.8794 138.4 62.7694 138.31 62.6294 138.31H56.0894C55.8494 138.31 55.6394 138.23 55.4594 138.07C55.2794 137.89 55.1894 137.68 55.1894 137.44C55.1894 137.2 55.2794 137 55.4594 136.84C55.6394 136.66 55.8494 136.57 56.0894 136.57H62.7494C63.0094 136.57 63.2194 136.49 63.3794 136.33C63.5594 136.15 63.6494 135.93 63.6494 135.67V134.74C63.6494 134.5 63.5594 134.29 63.3794 134.11C63.2194 133.93 63.0094 133.84 62.7494 133.84H56.0894C55.8494 133.84 55.6394 133.76 55.4594 133.6C55.2794 133.42 55.1894 133.21 55.1894 132.97C55.1894 132.73 55.0995 132.53 54.9195 132.37C54.7595 132.19 54.5495 132.1 54.2895 132.1H53.3594C53.1194 132.1 52.9095 132.19 52.7295 132.37C52.5495 132.53 52.4594 132.73 52.4594 132.97C52.4594 133.21 52.3694 133.42 52.1894 133.6C52.0294 133.76 51.8194 133.84 51.5594 133.84H44.8994C44.6594 133.84 44.4494 133.93 44.2694 134.11C44.0894 134.29 43.9995 134.5 43.9995 134.74V135.67C43.9995 135.93 44.0894 136.15 44.2694 136.33C44.4494 136.49 44.6594 136.57 44.8994 136.57H51.5594C51.8194 136.57 52.0294 136.66 52.1894 136.84C52.3694 137 52.4594 137.2 52.4594 137.44C52.4594 137.68 52.3694 137.89 52.1894 138.07C52.0294 138.23 51.8194 138.31 51.5594 138.31H45.4695C45.2295 138.31 45.0194 138.4 44.8394 138.58C44.6594 138.74 44.5695 138.95 44.5695 139.21V150.49C44.5695 150.73 44.6594 150.94 44.8394 151.12C45.0194 151.3 45.2295 151.39 45.4695 151.39H51.5594C51.8194 151.39 52.0294 151.48 52.1894 151.66C52.3694 151.82 52.4594 152.03 52.4594 152.29V152.32C52.4594 152.56 52.3694 152.77 52.1894 152.95C52.0294 153.13 51.8194 153.22 51.5594 153.22H44.8994C44.6594 153.22 44.4494 153.31 44.2694 153.49C44.0894 153.65 43.9995 153.86 43.9995 154.12V155.05C43.9995 155.29 44.0894 155.5 44.2694 155.68C44.4494 155.86 44.6594 155.95 44.8994 155.95H51.5594C51.8194 155.95 52.0294 156.04 52.1894 156.22ZM47.5694 141.31C47.7494 141.13 47.9594 141.04 48.1994 141.04H51.5594C51.8194 141.04 52.0294 141.13 52.1894 141.31C52.3694 141.47 52.4594 141.68 52.4594 141.94V142.57C52.4594 142.83 52.3694 143.05 52.1894 143.23C52.0294 143.39 51.8194 143.47 51.5594 143.47H48.1994C47.9594 143.47 47.7494 143.39 47.5694 143.23C47.3894 143.05 47.2995 142.83 47.2995 142.57V141.94C47.2995 141.68 47.3894 141.47 47.5694 141.31ZM55.4594 141.31C55.6394 141.13 55.8494 141.04 56.0894 141.04H59.4794C59.7194 141.04 59.9294 141.13 60.1094 141.31C60.2894 141.47 60.3794 141.68 60.3794 141.94V142.57C60.3794 142.83 60.2894 143.05 60.1094 143.23C59.9294 143.39 59.7194 143.47 59.4794 143.47H56.0894C55.8494 143.47 55.6394 143.39 55.4594 143.23C55.2794 143.05 55.1894 142.83 55.1894 142.57V141.94C55.1894 141.68 55.2794 141.47 55.4594 141.31ZM52.1894 148.39C52.0294 148.57 51.8194 148.66 51.5594 148.66H48.1994C47.9594 148.66 47.7494 148.57 47.5694 148.39C47.3894 148.21 47.2995 148 47.2995 147.76V147.1C47.2995 146.86 47.3894 146.65 47.5694 146.47C47.7494 146.29 47.9594 146.2 48.1994 146.2H51.5594C51.8194 146.2 52.0294 146.29 52.1894 146.47C52.3694 146.65 52.4594 146.86 52.4594 147.1V147.76C52.4594 148 52.3694 148.21 52.1894 148.39ZM60.1094 148.39C59.9294 148.57 59.7194 148.66 59.4794 148.66H56.0894C55.8494 148.66 55.6394 148.57 55.4594 148.39C55.2794 148.21 55.1894 148 55.1894 147.76V147.1C55.1894 146.86 55.2794 146.65 55.4594 146.47C55.6394 146.29 55.8494 146.2 56.0894 146.2H59.4794C59.7194 146.2 59.9294 146.29 60.1094 146.47C60.2894 146.65 60.3794 146.86 60.3794 147.1V147.76C60.3794 148 60.2894 148.21 60.1094 148.39Z" fill="white"/>
<path d="M80.1989 145.6C80.1989 143.86 81.6389 142.42 83.4089 142.42C85.1489 142.42 86.5889 143.86 86.5889 145.6C86.5889 147.37 85.1489 148.81 83.4089 148.81C81.6389 148.81 80.1989 147.37 80.1989 145.6Z" fill="white"/>
<path fill-rule="evenodd" clip-rule="evenodd" d="M108.249 154.57C108.449 154.77 108.689 154.87 108.969 154.87H114.579C114.859 154.87 115.169 154.8 115.509 154.66C115.869 154.5 116.169 154.32 116.409 154.12L117.129 153.37C117.349 153.15 117.529 152.87 117.669 152.53C117.809 152.19 117.879 151.87 117.879 151.57V139C117.879 138.7 117.789 138.45 117.609 138.25C117.429 138.05 117.209 137.95 116.949 137.95H108.789C108.549 137.95 108.349 138.05 108.189 138.25C108.029 138.45 107.949 138.7 107.949 139V153.82C107.949 154.1 108.049 154.35 108.249 154.57ZM111.009 151.75C110.809 151.55 110.709 151.31 110.709 151.03V141.76C110.709 141.48 110.809 141.24 111.009 141.04C111.229 140.82 111.479 140.71 111.759 140.71H114.069C114.349 140.71 114.589 140.82 114.789 141.04C115.009 141.24 115.119 141.48 115.119 141.76V151.03C115.119 151.31 115.009 151.55 114.789 151.75C114.589 151.95 114.349 152.05 114.069 152.05H111.759C111.479 152.05 111.229 151.95 111.009 151.75Z" fill="white"/>
<path fill-rule="evenodd" clip-rule="evenodd" d="M103.179 132.88C102.979 133.08 102.879 133.32 102.879 133.6V159.07C102.879 159.35 102.979 159.59 103.179 159.79C103.379 160.01 103.619 160.12 103.899 160.12H119.889C120.189 160.12 120.499 160.04 120.819 159.88C121.159 159.72 121.429 159.53 121.629 159.31L122.229 158.68C122.409 158.44 122.559 158.14 122.679 157.78C122.819 157.44 122.889 157.13 122.889 156.85V133.6C122.889 133.32 122.789 133.08 122.589 132.88C122.389 132.68 122.149 132.58 121.869 132.58H103.899C103.619 132.58 103.379 132.68 103.179 132.88ZM105.969 135.67C106.169 135.45 106.419 135.34 106.719 135.34H119.049C119.349 135.34 119.599 135.45 119.799 135.67C119.999 135.87 120.099 136.11 120.099 136.39V156.28C120.099 156.58 119.999 156.83 119.799 157.03C119.599 157.23 119.349 157.33 119.049 157.33H106.719C106.419 157.33 106.169 157.23 105.969 157.03C105.769 156.83 105.669 156.58 105.669 156.28V136.39C105.669 136.11 105.769 135.87 105.969 135.67Z" fill="white"/>
<path d="M128.878 133.66C128.698 133.82 128.608 134.03 128.608 134.29V153.49C128.608 153.75 128.668 154.03 128.788 154.33C128.928 154.63 129.088 154.87 129.268 155.05L130.168 155.95C130.348 156.13 130.588 156.28 130.888 156.4C131.188 156.52 131.458 156.58 131.698 156.58H132.838C133.098 156.58 133.308 156.67 133.468 156.85C133.648 157.03 133.738 157.24 133.738 157.48V158.2C133.738 158.46 133.828 158.67 134.008 158.83C134.188 159.01 134.398 159.1 134.638 159.1H135.568C135.828 159.1 136.038 159.01 136.198 158.83C136.378 158.67 136.468 158.46 136.468 158.2V132.91C136.468 132.67 136.378 132.46 136.198 132.28C136.038 132.1 135.828 132.01 135.568 132.01H134.638C134.398 132.01 134.188 132.1 134.008 132.28C133.828 132.46 133.738 132.67 133.738 132.91V152.95C133.738 153.21 133.648 153.43 133.468 153.61C133.308 153.77 133.098 153.85 132.838 153.85H132.238C131.998 153.85 131.788 153.77 131.608 153.61C131.428 153.43 131.338 153.21 131.338 152.95V134.29C131.338 134.03 131.248 133.82 131.068 133.66C130.908 133.48 130.698 133.39 130.438 133.39H129.508C129.268 133.39 129.058 133.48 128.878 133.66Z" fill="white"/>
<path fill-rule="evenodd" clip-rule="evenodd" d="M139.078 156.19C138.818 156.31 138.578 156.37 138.358 156.37C138.138 156.37 137.948 156.46 137.788 156.64C137.648 156.82 137.578 157.03 137.578 157.27V158.2C137.578 158.46 137.658 158.67 137.818 158.83C137.998 159.01 138.218 159.1 138.478 159.1H139.798C140.058 159.1 140.328 159.03 140.608 158.89C140.888 158.77 141.108 158.61 141.268 158.41L142.768 156.58C142.948 156.38 143.138 156.28 143.338 156.28C143.578 156.28 143.768 156.38 143.908 156.58L145.408 158.41C145.568 158.61 145.788 158.77 146.068 158.89C146.368 159.03 146.638 159.1 146.878 159.1H147.958C148.198 159.1 148.408 159.01 148.588 158.83C148.768 158.67 148.858 158.46 148.858 158.2V157.27C148.858 157.03 148.788 156.82 148.648 156.64C148.528 156.46 148.378 156.37 148.198 156.37C148.018 156.37 147.798 156.31 147.538 156.19C147.298 156.05 147.098 155.88 146.938 155.68L145.768 154.3C145.608 154.08 145.528 153.84 145.528 153.58C145.528 153.32 145.608 153.09 145.768 152.89L147.508 150.79C147.668 150.59 147.798 150.34 147.898 150.04C148.018 149.72 148.078 149.43 148.078 149.17V133.3C148.078 133.12 147.988 132.96 147.808 132.82C147.628 132.68 147.418 132.61 147.178 132.61H139.498C139.258 132.61 139.048 132.68 138.868 132.82C138.688 132.96 138.598 133.12 138.598 133.3V149.17C138.598 149.43 138.648 149.72 138.748 150.04C138.868 150.34 139.008 150.59 139.168 150.79L140.908 152.89C141.068 153.05 141.148 153.28 141.148 153.58C141.148 153.88 141.068 154.12 140.908 154.3L139.738 155.68C139.578 155.88 139.358 156.05 139.078 156.19ZM143.338 150.97C143.138 150.97 142.948 150.88 142.768 150.7L141.898 149.68C141.738 149.48 141.598 149.23 141.478 148.93C141.378 148.61 141.328 148.33 141.328 148.09V136.24C141.328 136 141.408 135.79 141.568 135.61C141.748 135.43 141.968 135.34 142.228 135.34H144.448C144.688 135.34 144.898 135.43 145.078 135.61C145.258 135.79 145.348 136 145.348 136.24V148.09C145.348 148.33 145.288 148.61 145.168 148.93C145.068 149.23 144.938 149.48 144.778 149.68L143.908 150.7C143.768 150.88 143.578 150.97 143.338 150.97Z" fill="white"/>
<path fill-rule="evenodd" clip-rule="evenodd" d="M61.7328 37.1224C58.0845 37.413 53.2035 38.1628 51.2451 38.7334C48.497 39.534 45.2343 40.9201 38.1517 44.2955L33.9176 46.3135L29.6183 46.8558C27.2536 47.1541 25.1557 47.4604 24.9562 47.5366C23.7836 47.985 23.2688 50.0271 23.0146 55.2387L22.8629 58.3511L22.4475 58.715C22.1543 58.9721 21.9666 59.3125 21.8087 59.8739C21.5974 60.6256 21.5977 60.7945 21.8116 62.9803L22.0381 65.2918L21.7496 65.6961C21.4709 66.0867 21.4686 66.1159 21.6798 66.56C21.9465 67.1211 22.9456 68.041 24.0813 68.771L24.9281 69.3154L27.5989 69.6711C29.0678 69.8666 32.0871 70.289 34.3084 70.6097C36.5297 70.9303 38.8629 71.2329 39.4934 71.2821L40.6397 71.3714L40.9462 72.2482C41.3981 73.541 41.8586 74.2488 42.9611 75.3442C44.0991 76.4751 45.4753 77.2587 47.1038 77.7029C48.5607 78.1004 51.4534 78.0988 52.9388 77.6995C55.7462 76.9452 57.9367 75.259 58.9991 73.0349L59.3411 72.3188L62.9664 72.3598L63.6219 71.577L87.1107 71.8131C109.584 72.039 110.654 72.0392 111.864 71.8192C112.152 71.767 112.202 71.758 112.252 71.7506C112.262 71.749 112.273 71.7475 112.286 71.7457C112.359 71.7354 112.507 71.7148 113.149 71.6104C114.294 71.1498 114.164 71.425 113.97 71.8353C113.845 72.099 113.694 72.4185 113.839 72.6343C116.664 76.8599 122.958 79.1199 127.642 76C128.963 75.1199 130.298 73.8742 130.913 72.7444L131.368 71.907L132.28 71.6658C132.782 71.5333 135.186 71.1678 137.622 70.8537L142.052 70.2826L146.09 68.6201L146.175 66.4198C146.222 65.2097 146.324 63.9043 146.403 63.5192C146.683 62.1492 146.491 60.9899 145.905 60.5135C145.773 60.4063 145.533 59.9089 145.371 59.4082C144.829 57.7314 143.43 55.232 142.656 54.5573C140.445 52.6297 128.811 50.2762 116.145 49.1945L114.341 49.0405L112.432 47.9051C106.309 44.2634 95.7687 39.0131 93.2502 38.3502C90.8405 37.7157 88.001 37.3345 84.011 37.1095C81.2942 36.9565 63.6889 36.9666 61.7328 37.1224ZM75.544 38.7653C75.5448 38.819 75.8963 40.8231 76.3252 43.219C76.7542 45.6148 77.1054 47.8224 77.1056 48.1247C77.1063 48.9567 76.7417 49.1416 75.1565 49.1133C71.6215 49.0499 60.4849 48.6368 60.4204 48.5666C60.3188 48.4559 59.3477 39.9647 59.4275 39.885C59.5436 39.7691 63.0757 39.2179 64.7293 39.0576C67.6502 38.7744 75.5412 38.561 75.544 38.7653ZM83.0339 38.9274C84.1804 38.9983 85.6754 39.1196 86.3561 39.1971C91.6397 39.7989 96.4359 41.7486 100.988 45.1451L102.316 46.1358L101.717 46.2242C99.7563 46.5135 98.881 48.3231 100.056 49.6584C100.363 50.0082 100.404 50.1108 100.237 50.1108C100.117 50.1108 96.4324 49.964 92.048 49.7844C83.3581 49.4286 83.3052 49.4222 82.6125 48.6348C82.2525 48.2255 82.0999 47.824 79.7017 40.9759L78.9389 38.7978L79.9441 38.7983C80.497 38.7984 81.8874 38.8567 83.0339 38.9274ZM58.6089 40.1306C58.6103 40.1484 58.8398 42.0356 59.1186 44.3242C59.3974 46.6128 59.6011 48.5099 59.5714 48.5398C59.5415 48.5699 57.675 48.5327 55.4232 48.4573C51.4883 48.3255 51.3072 48.3081 50.766 48.011C50.0757 47.6319 49.4018 46.669 49.2857 45.8957C49.085 44.5599 50.0943 43.5345 53.069 42.0525C54.895 41.1428 58.5857 39.8624 58.6089 40.1306ZM26.1388 48.6666C27.0042 49.2914 27.5102 49.9742 27.7873 50.891C28.0477 51.7523 28.1917 54.0169 28.0626 55.2201L27.969 56.0924H23.6904V54.9447C23.6904 51.8821 24.2002 49.2572 24.9641 48.3878C25.2411 48.0725 25.3528 48.099 26.1388 48.6666ZM58.7669 52.4016C58.9041 52.7021 58.8868 52.7708 58.6194 52.9867C58.3512 53.2036 58.0792 53.2316 56.2378 53.2316C55.0946 53.2316 54.0528 53.1748 53.9226 53.1052C53.6029 52.9345 53.4975 52.6156 53.6603 52.312C53.7855 52.0783 53.9581 52.0613 56.2032 52.0613H58.6116L58.7669 52.4016ZM86.9815 52.8675C87.2208 53.1064 87.1675 53.5967 86.8858 53.7472C86.7407 53.8247 85.7019 53.8818 84.4365 53.8818C82.1309 53.8818 81.9265 53.8341 81.9265 53.2966C81.9265 52.7563 82.1261 52.7114 84.5321 52.7114C86.1419 52.7114 86.8718 52.758 86.9815 52.8675ZM141.665 56.1133C142.294 56.6646 143.175 57.8248 143.597 58.6562C143.786 59.0293 143.941 59.3657 143.941 59.4039C143.941 59.442 142.006 59.4733 139.641 59.4733C136.284 59.4733 135.344 59.4376 135.352 59.3107C135.375 58.9309 136.738 56.4119 137.038 56.1944C137.264 56.0303 137.748 55.9229 138.601 55.8474C140.963 55.6384 141.141 55.6538 141.665 56.1133ZM124.789 61.1683C127.586 61.9764 129.498 64.5781 129.517 67.6004C129.529 69.4559 128.964 70.8653 127.642 72.2753C125.073 75.016 120.822 75.0953 118.066 72.4541C115.953 70.4288 115.387 67.4226 116.621 64.7751C118.067 61.6699 121.413 60.1925 124.789 61.1683ZM51.6698 61.8797C52.9454 62.1798 54.01 62.7858 54.9581 63.7513C56.2898 65.1074 56.9079 66.5948 56.9108 68.4508C56.9138 70.3279 56.2581 71.9178 54.9373 73.2361C53.6001 74.5708 52.0501 75.2074 50.1377 75.2074C48.1673 75.2074 46.7949 74.6313 45.3704 73.2061C44.3696 72.2048 43.7636 71.1305 43.507 69.9021C42.4968 65.0671 46.8855 60.7537 51.6698 61.8797Z" fill="white"/>
<path d="M149.86 99.5087C149.782 99.4155 149.608 99.2852 149.474 99.2192L149.231 99.0993H143.829L143.586 99.2192C143.452 99.2852 143.278 99.4155 143.2 99.5087C142.931 99.83 142.92 99.9333 142.92 102.156C142.92 104.5 142.925 104.536 143.289 104.896C143.357 104.963 143.412 105.019 143.475 105.064C143.75 105.262 144.17 105.26 146.53 105.26C148.89 105.26 149.309 105.262 149.585 105.064C149.647 105.019 149.703 104.963 149.771 104.896C150.135 104.536 150.14 104.5 150.14 102.156C150.14 99.9333 150.129 99.83 149.86 99.5087Z" fill="white"/>
<path d="M149.794 109.174C150.276 108.68 150.096 107.87 149.454 107.644C148.973 107.474 148.479 107.686 148.26 108.155C148.088 108.521 148.189 108.948 148.514 109.229C148.905 109.569 149.431 109.547 149.794 109.174Z" fill="white"/>
<path d="M147.331 108.958C147.591 108.455 147.312 107.781 146.779 107.623C146.394 107.509 145.936 107.67 145.703 108.002C145.586 108.169 145.569 108.235 145.569 108.525C145.569 108.815 145.586 108.882 145.703 109.049C145.855 109.265 146.228 109.475 146.462 109.475C146.812 109.475 147.176 109.258 147.331 108.958Z" fill="white"/>
<path d="M144.802 108.896C145.015 108.433 144.795 107.888 144.303 107.664C143.609 107.346 142.834 107.994 143.016 108.742C143.113 109.144 143.525 109.474 143.928 109.474C144.269 109.474 144.653 109.22 144.802 108.896Z" fill="white"/>
<path d="M149.972 111.842C150.251 111.297 149.937 110.64 149.327 110.49C148.771 110.354 148.175 110.823 148.172 111.4C148.17 111.67 148.367 112.031 148.597 112.182C148.824 112.33 149.167 112.38 149.411 112.301C149.614 112.235 149.884 112.014 149.972 111.842Z" fill="white"/>
<path d="M147.405 111.841C147.675 111.337 147.404 110.689 146.852 110.516C146.247 110.326 145.639 110.772 145.639 111.406C145.639 112.384 146.944 112.705 147.405 111.841Z" fill="white"/>
<path d="M144.799 111.021C144.697 110.798 144.449 110.586 144.199 110.508C143.848 110.398 143.372 110.561 143.168 110.86C142.698 111.549 143.225 112.428 144.049 112.332C144.672 112.259 145.058 111.584 144.799 111.021Z" fill="white"/>
<path d="M149.308 115.128C150.233 114.922 150.35 113.729 149.483 113.344C149.23 113.232 148.832 113.271 148.598 113.431C148.367 113.59 148.17 113.953 148.172 114.22C148.175 114.784 148.759 115.251 149.308 115.128Z" fill="white"/>
<path d="M147.489 113.797C147.374 113.569 147.133 113.359 146.925 113.307C146.567 113.216 146.18 113.336 145.934 113.612C145.708 113.867 145.637 114.181 145.739 114.482C145.969 115.158 146.79 115.366 147.303 114.878C147.625 114.571 147.69 114.195 147.489 113.797Z" fill="white"/>
<path d="M144.887 114.223C144.887 113.87 144.631 113.482 144.303 113.338C143.992 113.202 143.547 113.291 143.279 113.542C142.59 114.189 143.206 115.319 144.141 115.121C144.554 115.033 144.887 114.633 144.887 114.223Z" fill="white"/>
<path fill-rule="evenodd" clip-rule="evenodd" d="M150.353 91.3941C150.283 91.3036 150.118 91.1764 149.986 91.1114C149.466 90.8553 148.859 91.0538 148.576 91.5724C148.478 91.7538 148.475 91.8048 148.462 94.0389L148.449 96.3201H145.577C142.981 96.3201 142.525 96.3193 142.136 96.4804C142.051 96.5156 141.969 96.5586 141.869 96.611C141.479 96.8153 141.012 97.2864 140.824 97.6658C140.786 97.7421 140.753 97.8003 140.724 97.8605C140.516 98.2958 140.531 98.8372 140.53 107.145C140.529 113.192 140.544 115.796 140.581 115.969C140.733 116.694 141.325 117.438 141.99 117.739C142.179 117.824 142.446 117.918 142.583 117.946C142.93 118.018 150.13 118.018 150.477 117.946C150.614 117.918 150.881 117.824 151.07 117.739C151.735 117.438 152.327 116.694 152.479 115.969C152.515 115.796 152.53 113.192 152.53 107.145C152.529 98.8372 152.544 98.2958 152.336 97.8605C152.307 97.8003 152.274 97.7421 152.236 97.6658C152.024 97.2378 151.57 96.7977 151.121 96.5857C150.929 96.4952 150.736 96.4096 150.691 96.3953C150.614 96.371 150.609 96.2241 150.609 94.1751C150.609 91.7981 150.601 91.7154 150.353 91.3941ZM142.225 98.4276C142.333 98.2332 142.538 98.0515 142.743 97.9669C142.895 97.9039 143.368 97.8952 146.54 97.8968C149.933 97.8985 150.294 97.8909 150.514 98.0632C150.55 98.0916 150.583 98.1248 150.624 98.1638C150.664 98.201 150.698 98.221 150.728 98.2465C150.932 98.4228 150.914 98.8584 150.926 107.036C150.934 112.637 150.922 115.564 150.891 115.679C150.819 115.941 150.652 116.155 150.419 116.284L150.21 116.4H142.85L142.641 116.284C142.408 116.155 142.241 115.941 142.169 115.679C142.138 115.564 142.126 112.637 142.134 107.036C142.146 99.244 142.153 98.5555 142.225 98.4276Z" fill="white"/>
</svg>
